<svg xmlns="http://www.w3.org/2000/svg" xmlns:xlink="http://www.w3.org/1999/xlink" version="1.1" x="0px" y="0px" viewBox="0 0 100 125" style="enable-background:new 0 0 100 100;" xml:space="preserve"><g><path d="M52,21.4H23.7c-0.9,0-1.6,0.7-1.6,1.6s0.7,1.6,1.6,1.6H52c0.9,0,1.6-0.7,1.6-1.6S52.9,21.4,52,21.4z"/><path d="M52,29.7H23.7c-0.9,0-1.6,0.7-1.6,1.6s0.7,1.6,1.6,1.6H52c0.9,0,1.6-0.7,1.6-1.6C53.6,30.4,52.9,29.7,52,29.7z"/><path d="M52,38H23.7c-0.9,0-1.6,0.7-1.6,1.6c0,0.9,0.7,1.6,1.6,1.6H52c0.9,0,1.6-0.7,1.6-1.6S52.9,38,52,38z"/><path d="M52,46.3H23.7c-0.9,0-1.6,0.7-1.6,1.6s0.7,1.6,1.6,1.6H52c0.9,0,1.6-0.7,1.6-1.6S52.9,46.3,52,46.3z"/><path d="M52,54.6H23.7c-0.9,0-1.6,0.7-1.6,1.6c0,0.9,0.7,1.6,1.6,1.6H52c0.9,0,1.6-0.7,1.6-1.6S52.9,54.6,52,54.6z"/><path d="M52,62.9H23.7c-0.9,0-1.6,0.7-1.6,1.6c0,0.9,0.7,1.6,1.6,1.6H52c0.9,0,1.6-0.7,1.6-1.6S52.9,62.9,52,62.9z"/><path d="M52,79.5H23.7c-0.9,0-1.6,0.7-1.6,1.6s0.7,1.6,1.6,1.6H52c0.9,0,1.6-0.7,1.6-1.6C53.6,80.3,52.9,79.5,52,79.5z"/><path d="M52,71.2H23.7c-0.9,0-1.6,0.7-1.6,1.6s0.7,1.6,1.6,1.6H52c0.9,0,1.6-0.7,1.6-1.6C53.6,71.9,52.9,71.2,52,71.2z"/><path d="M72.9,5.7h-59c-3.4,0-6.2,2.6-6.4,6v1.4c-1.9,0.2-3.7,0.7-4.9,1.9c-0.9,0.9-1.4,2.1-1.4,3.5c0,1.5,0.6,2.9,1.6,3.8   c1.4,1.3,3.3,1.6,4.7,1.7v2.6c-1.9,0.2-3.7,0.7-4.9,1.9c-0.9,0.9-1.4,2.1-1.4,3.5c0,1.5,0.6,2.9,1.6,3.8c1.4,1.3,3.3,1.6,4.7,1.7   v2.6c-1.9,0.2-3.7,0.7-4.9,1.9c-0.9,0.9-1.4,2.1-1.4,3.5c0,1.5,0.6,2.9,1.6,3.8c1.4,1.3,3.3,1.6,4.7,1.7v2.6   c-1.9,0.2-3.7,0.7-4.9,1.9c-0.9,0.9-1.4,2.1-1.4,3.5c0,1.5,0.6,2.9,1.6,3.8c1.4,1.3,3.3,1.6,4.7,1.7v2.6c-1.9,0.2-3.7,0.7-4.9,1.9   c-0.9,0.9-1.4,2.1-1.4,3.5c0,1.5,0.6,2.9,1.6,3.8c1.4,1.3,3.3,1.6,4.7,1.7v2.6c-1.9,0.2-3.7,0.7-4.9,1.9c-0.9,0.9-1.4,2.1-1.4,3.5   c0,1.5,0.6,2.9,1.6,3.8c1.4,1.3,3.4,1.6,4.8,1.7c0.5,3.1,3.1,5.4,6.3,5.4h59c3.5,0,6.4-2.9,6.4-6.4V12.2   C79.3,8.6,76.5,5.7,72.9,5.7z M7.5,87.7c-0.9-0.1-2-0.3-2.7-0.9c-0.3-0.2-0.6-0.7-0.6-1.6c0-0.8,0.3-1.1,0.5-1.3   c0.6-0.6,1.6-0.8,2.8-1V87.7z M7.5,74.4c-0.9-0.1-2-0.3-2.7-0.9c-0.3-0.2-0.6-0.7-0.6-1.6c0-0.8,0.3-1.1,0.5-1.3   c0.6-0.6,1.6-0.8,2.8-1V74.4z M7.5,61c-0.9-0.1-2-0.3-2.7-0.9c-0.3-0.2-0.6-0.7-0.6-1.6c0-0.8,0.3-1.1,0.5-1.3   c0.6-0.6,1.6-0.8,2.8-1V61z M7.5,47.6c-0.9-0.1-2-0.3-2.7-0.9c-0.3-0.2-0.6-0.7-0.6-1.6c0-0.8,0.3-1.1,0.5-1.3   c0.6-0.6,1.6-0.8,2.8-1V47.6z M7.5,34.2c-0.9-0.1-2-0.3-2.7-0.9c-0.3-0.2-0.6-0.7-0.6-1.6c0-0.8,0.3-1.1,0.5-1.3   c0.6-0.6,1.6-0.8,2.8-1V34.2z M7.5,20.9c-0.9-0.1-2-0.3-2.7-0.9c-0.3-0.2-0.6-0.7-0.6-1.6c0-0.8,0.3-1.1,0.5-1.3   c0.6-0.6,1.6-0.8,2.8-1V20.9z M76.1,89.7c0,1.8-1.4,3.2-3.2,3.2h-8.6V78.4h11.8C76.1,78.4,76.1,89.7,76.1,89.7z M76.1,75.2H64.3   V61.1h11.8C76.1,61.1,76.1,75.2,76.1,75.2z M76.1,57.8H64.3V43.7h11.8C76.1,43.7,76.1,57.8,76.1,57.8z M76.1,40.5H64.3V26.3h11.8   C76.1,26.3,76.1,40.5,76.1,40.5z M76.1,23.1H62.7c-0.9,0-1.6,0.7-1.6,1.6v68.2H13.9c-1.8,0-3.2-1.4-3.2-3.2V88l0,0v-5.2   c0.4,0,0.8,0,1.2,0c0.5,0,0.9,0,1.3,0c0.8,0,1.5-0.7,1.5-1.5s-0.7-1.5-1.5-1.5c-0.4,0-0.8,0-1.3,0c-0.4,0-0.8,0-1.2,0V69.4   c0.4,0,0.8,0,1.2,0c0.5,0,0.9,0,1.3,0c0.8,0,1.5-0.7,1.5-1.5s-0.7-1.5-1.5-1.5c-0.4,0-0.8,0-1.3,0c-0.4,0-0.8,0-1.2,0V56.1   c0.4,0,0.8,0,1.2,0c0.5,0,0.9,0,1.3,0c0.8,0,1.5-0.7,1.5-1.5s-0.7-1.5-1.5-1.5c-0.4,0-0.8,0-1.3,0c-0.4,0-0.8,0-1.2,0V42.7   c0.4,0,0.8,0,1.2,0c0.5,0,0.9,0,1.3,0c0.8,0,1.5-0.7,1.5-1.5s-0.7-1.5-1.5-1.5c-0.4,0-0.8,0-1.3,0c-0.4,0-0.8,0-1.2,0V29.3   c0.4,0,0.8,0,1.2,0c0.5,0,0.9,0,1.3,0c0.8,0,1.5-0.7,1.5-1.5s-0.7-1.5-1.5-1.5c-0.4,0-0.8,0-1.3,0c-0.4,0-0.8,0-1.2,0V15.9   c0.4,0,0.8,0,1.2,0c0.5,0,0.9,0,1.3,0c0.8,0,1.5-0.7,1.5-1.5S14.1,13,13.2,13c-0.4,0-0.8,0-1.3,0c-0.4,0-0.8,0-1.2,0v-0.8   c0-1.8,1.4-3.2,3.2-3.2h59c1.8,0,3.2,1.4,3.2,3.2V23.1z"/><path d="M70.4,11.8c-0.8,0-1.5,0.7-1.5,1.5v5.6c0,0.8,0.7,1.5,1.5,1.5s1.5-0.7,1.5-1.5v-5.6C71.9,12.5,71.2,11.8,70.4,11.8z"/><path d="M70.3,37.6C70.3,37.6,70.4,37.6,70.3,37.6c0.8,0,1.5-0.7,1.5-1.5v-5.6c0-0.8-0.7-1.5-1.5-1.5l0,0c-0.8,0-1.5,0.7-1.5,1.5   v5.6C68.8,37,69.5,37.6,70.3,37.6z"/><path d="M70.3,55.2C70.3,55.2,70.4,55.2,70.3,55.2c0.8,0,1.5-0.7,1.5-1.5v-5.6c0-0.8-0.7-1.5-1.5-1.5l0,0c-0.8,0-1.5,0.7-1.5,1.5   v5.6C68.8,54.5,69.5,55.2,70.3,55.2z"/><path d="M70.3,72.6C70.3,72.6,70.4,72.6,70.3,72.6c0.8,0,1.5-0.7,1.5-1.5v-5.6c0-0.8-0.7-1.5-1.5-1.5l0,0c-0.8,0-1.5,0.7-1.5,1.5   v5.6C68.8,71.9,69.5,72.6,70.3,72.6z"/><path d="M70.3,90.2C70.3,90.2,70.4,90.2,70.3,90.2c0.8,0,1.5-0.7,1.5-1.5v-5.6c0-0.8-0.7-1.5-1.5-1.5l0,0c-0.8,0-1.5,0.7-1.5,1.5   v5.6C68.8,89.5,69.5,90.2,70.3,90.2z"/><path d="M98.7,29.6v-0.1c0-0.1-0.1-0.2-0.1-0.4L91.2,17c-0.1-0.1-0.1-0.2-0.2-0.2l-0.1-0.1c-0.1-0.1-0.2-0.2-0.4-0.3h-0.1   c-0.4-0.1-0.7-0.1-1,0c-0.2,0.1-0.3,0.2-0.5,0.3c-0.1,0.1-0.1,0.2-0.2,0.3l-7.4,12l-0.1,0.3c0,0.1-0.1,0.2-0.1,0.4V77   c0,4.9,4,8.8,8.8,8.8c4.9,0,8.8-4,8.8-8.8L98.7,29.6z M88.6,22.5c0.2,0.5,0.7,0.8,1.3,0.8c0.6,0,1.1-0.3,1.3-0.8l4.4,7.1l-2,2.4   L91,28.8c-0.1-0.1-0.1-0.1-0.1-0.1l-0.1-0.1l-0.1-0.1c-0.1,0-0.1-0.1-0.2-0.1s-0.2-0.1-0.3-0.1c-0.1,0-0.2,0-0.2,0   c-0.1,0-0.2,0-0.3,0c-0.1,0-0.2,0-0.2,0.1c-0.1,0-0.2,0.1-0.2,0.1L89,28.6l-0.1,0.1l-0.1,0.1L86.2,32l-2-2.4L88.6,22.5z M92.2,34.8   L92.1,68h-4.6l0.1-33.2l2.3-2.8L92.2,34.8z M84,33.7l0.8,1.1L84.7,68H84V33.7z M89.9,82.8c-2.7,0-5.1-1.9-5.8-4.5h11.6   C95.1,80.9,92.7,82.8,89.9,82.8z M95.9,75.4H84v-0.8h11.9V75.4z M95.9,71.7H84v-0.8h11.9V71.7z M95.9,68H95V34.8l0.8-1.1L95.9,68   L95.9,68z"/></g><text x="0" y="115" fill="#000000" font-size="5px" font-weight="bold" font-family="'Helvetica Neue', Helvetica, Arial-Unicode, Arial, Sans-serif">Created by Myly</text><text x="0" y="120" fill="#000000" font-size="5px" font-weight="bold" font-family="'Helvetica Neue', Helvetica, Arial-Unicode, Arial, Sans-serif">from the Noun Project</text></svg>